<?xml version="1.0" standalone="no"?>
<!DOCTYPE svg PUBLIC "-//W3C//DTD SVG 20010904//EN"
 "http://www.w3.org/TR/2001/REC-SVG-20010904/DTD/svg10.dtd">
<svg version="1.0" xmlns="http://www.w3.org/2000/svg"
 width="16.000000pt" height="16.000000pt" viewBox="0 0 16.000000 16.000000"
 preserveAspectRatio="xMidYMid meet">
<metadata>
Created by potrace 1.11, written by Peter Selinger 2001-2013
</metadata>
<g transform="translate(0.000000,16.000000) scale(0.006154,-0.006154)"
fill="#000000" stroke="none">
<path d="M10 1725 c0 -687 3 -865 12 -863 22 4 59 -13 55 -25 -2 -7 -17 -11
-33 -9 l-29 3 29 -26 c27 -25 27 -27 11 -45 -11 -12 -15 -26 -10 -37 5 -11 9
-14 12 -6 2 7 11 9 19 6 9 -3 14 1 14 13 0 9 3 15 6 11 3 -3 3 -14 0 -25 -7
-21 -61 -46 -77 -36 -5 3 -9 -15 -9 -40 0 -47 4 -53 30 -36 10 6 11 10 3 10
-7 0 -13 4 -13 9 0 5 14 8 30 6 17 -2 30 0 30 5 0 6 -4 10 -10 10 -5 0 -10 5
-10 11 0 8 5 7 15 -1 9 -7 36 -12 60 -12 29 2 45 -2 45 -10 0 -6 -3 -9 -6 -5
-12 11 -119 -34 -142 -61 -13 -15 -21 -21 -17 -14 3 6 1 12 -5 12 -7 0 -10
-80 -10 -264 1 -263 1 -264 23 -270 18 -5 20 -8 7 -16 -12 -8 -9 -10 12 -10
29 0 46 15 26 23 -7 3 -3 4 9 4 12 -1 21 -6 20 -12 -1 -5 18 -11 43 -12 43 -1
44 -1 10 7 -19 4 -29 8 -22 9 8 0 10 6 6 14 -6 9 -4 9 7 -1 7 -6 21 -12 31
-12 10 0 18 -4 18 -10 0 -5 5 -10 11 -10 6 0 9 7 5 15 -3 10 3 17 19 21 14 3
25 13 25 23 0 14 -2 14 -10 1 -5 -8 -10 -10 -10 -5 0 6 -4 5 -8 -2 -6 -9 -15
-6 -36 12 -27 23 -27 24 -7 35 12 6 21 7 20 3 -1 -4 -1 -16 0 -25 1 -22 21
-24 21 -2 0 8 5 12 10 9 6 -3 10 0 11 7 0 7 6 1 12 -14 19 -40 63 -78 77 -64
8 8 13 7 20 -4 8 -13 12 -12 27 4 17 18 17 18 1 13 -12 -4 -18 -1 -18 8 0 20
-10 19 -25 -2 -12 -16 -14 -16 -29 -1 -20 21 -20 37 -1 44 8 4 12 11 8 17 -4
6 -1 7 7 2 8 -5 33 -8 57 -6 32 1 45 -2 50 -15 10 -27 -20 -37 -39 -11 -9 12
-20 18 -24 14 -4 -4 -3 -7 2 -7 6 0 16 -16 24 -35 14 -37 36 -49 27 -16 -5 22
14 34 51 34 12 0 22 3 22 7 0 3 13 5 30 2 16 -2 28 -9 27 -16 -1 -6 4 -10 11
-8 7 1 20 -4 28 -13 14 -13 14 -15 0 -15 -9 0 -16 5 -16 12 0 6 -3 8 -6 5 -4
-3 -15 -2 -24 3 -13 7 -20 6 -23 -4 -6 -15 20 -26 66 -26 21 0 30 6 34 20 l5
20 18 -20 c16 -19 83 -30 78 -13 -2 5 2 8 7 8 6 0 9 -3 7 -7 -3 -12 23 -9 36
4 9 9 12 9 12 1 0 -13 104 -13 116 0 4 4 1 7 -7 7 -11 0 -11 2 1 10 10 7 11
10 2 10 -7 0 -15 -6 -18 -13 -5 -15 -39 -16 -51 -2 -5 4 -2 5 5 1 7 -4 12 -1
12 9 0 9 -4 13 -10 10 -5 -3 -10 0 -10 8 0 10 8 13 25 9 14 -2 25 -8 25 -13 0
-5 12 -4 26 1 32 13 54 13 34 0 -8 -5 -11 -12 -7 -16 4 -4 1 -14 -5 -23 -12
-15 23 10 47 34 5 6 9 8 8 6 -2 -2 3 -11 10 -19 7 -9 7 -13 1 -9 -6 3 -20 0
-30 -8 -17 -12 -16 -13 16 -11 54 5 56 6 40 16 -13 9 -13 10 0 10 9 0 21 -5
28 -12 6 -6 15 -8 19 -4 4 4 1 11 -7 16 -11 7 -11 10 -2 10 7 0 16 -9 20 -20
7 -19 9 -19 27 -5 13 11 15 15 5 12 -14 -3 -39 19 -40 36 0 14 39 7 48 -9 7
-12 19 -15 50 -11 23 2 39 1 37 -4 -3 -4 -1 -10 5 -14 6 -4 8 -10 6 -14 -6 -8
77 -10 84 -2 3 4 16 11 30 17 20 9 30 8 50 -6 33 -22 166 -25 174 -3 3 8 2 12
-2 9 -5 -3 -21 6 -36 19 -16 13 -34 21 -43 18 -18 -7 -52 32 -53 60 0 9 -7 17
-15 17 -8 0 -15 5 -15 10 0 14 12 12 38 -6 13 -9 32 -14 43 -11 10 3 22 0 26
-5 4 -7 1 -8 -8 -4 -8 4 -4 -1 9 -11 18 -15 20 -21 10 -31 -9 -9 -9 -12 3 -12
8 0 25 -9 37 -20 21 -20 63 -40 83 -40 6 0 5 9 -2 21 -6 12 -15 36 -20 53 l-8
31 20 -28 c11 -15 25 -24 31 -21 7 4 7 9 0 13 -6 3 0 11 14 18 19 9 24 8 24
-2 0 -8 -5 -17 -12 -21 -8 -5 -6 -10 8 -15 18 -7 18 -8 0 -8 -13 -1 -17 -6
-13 -20 3 -13 -1 -21 -12 -23 -9 -2 11 -4 44 -4 36 0 65 5 73 13 7 7 18 13 25
13 6 0 2 -6 -9 -14 -17 -13 -13 -15 44 -15 36 1 60 5 56 10 -3 5 -10 7 -15 4
-14 -9 -11 35 4 48 17 17 44 20 53 6 5 -8 2 -10 -8 -7 -18 8 -43 -6 -35 -19 4
-6 19 -10 34 -9 20 1 27 6 25 17 -1 9 5 16 13 16 8 0 13 -2 10 -5 -2 -3 0 -14
6 -25 7 -13 7 -17 1 -13 -6 3 -13 2 -17 -4 -7 -11 -9 -11 68 -15 49 -3 58 -1
53 11 -3 9 -2 12 5 9 5 -4 21 -4 35 -1 21 6 23 9 14 27 -6 11 -16 16 -23 12
-8 -5 -8 -8 1 -11 21 -7 13 -19 -10 -17 -13 1 -31 3 -40 4 -11 0 -18 9 -18 22
0 11 5 17 10 14 6 -4 8 -12 4 -18 -3 -7 0 -5 8 4 16 19 111 22 104 3 -3 -7 3
-15 12 -17 15 -4 15 -5 -1 -6 -21 -1 -49 -26 -40 -35 4 -3 46 -6 94 -6 80 0
88 2 82 18 -7 16 -6 16 11 0 19 -20 31 -24 21 -7 -4 6 0 9 11 7 14 -2 18 2 16
16 -3 14 1 18 16 14 16 -4 19 -1 18 18 -1 24 -8 28 -35 24 -11 -1 -10 2 2 15
22 21 73 26 69 6 -3 -12 0 -12 13 -1 8 7 18 10 22 6 3 -3 1 -6 -6 -6 -7 0 -10
-4 -7 -8 2 -4 -5 -9 -16 -9 -31 -3 -45 -20 -29 -35 11 -11 12 -10 6 1 -6 11
-4 13 8 8 9 -3 17 -1 20 6 2 6 6 1 9 -11 4 -12 2 -20 -2 -17 -5 3 -12 0 -15
-6 -4 -5 -13 -8 -20 -5 -7 2 -21 -4 -31 -15 -17 -19 -16 -19 29 -18 38 2 44 4
30 14 -21 16 -4 25 25 14 15 -6 21 -13 16 -21 -6 -9 -3 -9 9 1 19 15 14 31 -9
31 -8 0 -12 5 -9 10 3 6 1 10 -4 10 -6 0 -11 4 -11 10 0 5 6 9 13 7 15 -3 48
-48 42 -58 -3 -4 9 -9 25 -11 24 -4 30 -1 30 13 0 10 -8 20 -17 22 -17 4 -17
5 0 6 20 1 24 37 5 44 -10 4 -10 8 -2 14 15 10 12 75 -3 80 -7 3 -21 -1 -32
-7 -16 -8 -21 -8 -21 1 0 6 9 13 20 16 11 3 20 10 20 17 0 6 5 4 10 -4 7 -10
10 -11 11 -2 1 6 2 18 3 25 1 6 -2 17 -6 23 -5 7 -11 22 -13 34 -3 16 0 20 10
16 9 -3 15 1 15 10 0 11 -6 14 -17 10 -17 -6 -17 -5 -1 7 14 11 17 29 16 95
-1 58 -5 83 -15 86 -7 3 -13 1 -13 -4 0 -6 5 -10 10 -10 6 0 10 -4 10 -10 0
-5 -6 -7 -13 -4 -7 2 -23 -4 -36 -15 -12 -11 -29 -17 -37 -14 -23 9 -16 22 9
16 16 -4 19 -3 11 6 -14 15 -54 23 -55 10 -1 -5 -2 -15 -3 -21 -2 -22 -20 -37
-28 -24 -4 6 -13 11 -19 11 -7 0 -13 9 -15 20 -2 14 3 20 19 22 12 1 38 4 57
7 24 4 38 2 46 -8 7 -10 15 -12 25 -5 12 7 11 9 -3 9 -9 0 -21 7 -26 16 -10
18 -91 28 -109 12 -10 -8 -17 -8 -25 0 -20 20 -32 13 -14 -7 16 -18 16 -18 -9
-14 -16 4 -25 1 -25 -7 0 -7 -7 -10 -15 -7 -8 4 -17 2 -20 -3 -4 -6 -1 -10 6
-10 8 0 7 -5 -2 -16 -8 -9 -14 -24 -14 -32 0 -8 -7 -18 -15 -20 -13 -5 -13 -3
0 14 14 17 14 18 -2 6 -17 -13 -18 -28 -5 -49 5 -9 2 -13 -8 -13 -13 0 -14 -2
-3 -14 16 -17 38 -2 38 26 0 22 30 22 38 -1 3 -10 0 -12 -12 -8 -9 4 -15 3
-11 -2 3 -5 -1 -11 -7 -14 -8 -3 -3 -9 12 -15 24 -11 24 -11 -10 -10 -19 0
-42 -2 -51 -6 -10 -5 -20 2 -29 19 -11 20 -20 25 -37 22 -13 -2 -26 0 -29 4
-3 5 -13 9 -22 9 -16 -1 -16 -2 1 -14 9 -7 17 -18 17 -25 0 -6 6 -11 14 -11
21 0 30 -18 17 -34 -6 -7 -7 -17 -3 -21 4 -5 -2 -5 -13 -1 -16 6 -17 5 -8 -5
9 -9 17 -8 37 4 14 9 31 15 38 13 7 -3 25 -7 40 -10 21 -5 25 -10 21 -27 -5
-18 -3 -20 16 -14 17 5 21 2 21 -14 0 -12 5 -21 11 -21 5 0 8 -4 5 -9 -4 -5 0
-12 6 -14 10 -4 10 -6 1 -6 -7 -1 -10 -8 -7 -16 4 -8 11 -12 17 -8 6 4 7 1 2
-6 -4 -7 -16 -11 -26 -8 -11 3 -17 1 -13 -4 8 -13 -10 -11 -24 3 -8 8 -12 8
-12 1 0 -15 25 -34 34 -26 12 12 33 11 33 -2 0 -18 -58 -13 -89 7 -21 14 -28
15 -37 4 -6 -8 -7 -16 -1 -22 6 -6 5 -15 -1 -24 -8 -12 -9 -11 -7 5 2 15 -2
19 -17 17 -16 -2 -17 -1 -5 7 13 9 13 11 -2 11 -9 0 -32 9 -51 20 -32 19 -73
18 -61 -1 3 -5 -6 -4 -20 2 -14 7 -23 16 -19 22 3 5 9 3 14 -4 6 -10 9 -10 9
-2 0 7 -9 17 -20 23 -18 10 -20 8 -20 -28 0 -36 2 -39 25 -37 14 2 25 0 25 -4
0 -5 -18 -8 -40 -8 -21 0 -37 3 -35 8 3 4 -9 12 -25 18 -31 10 -41 31 -15 31
25 0 18 48 -10 66 -27 18 -47 12 -27 -8 15 -15 16 -78 2 -78 -5 0 -10 5 -10
11 0 6 -7 9 -14 6 -10 -4 -18 2 -22 16 -10 32 -45 63 -74 65 -24 1 -25 -1 -22
-38 3 -32 1 -40 -12 -40 -9 0 -16 7 -16 15 0 8 -6 25 -12 38 -21 37 -48 50
-48 23 0 -8 -5 -18 -12 -22 -8 -5 -9 0 -6 14 4 12 2 24 -2 27 -4 3 -6 14 -3
25 3 11 9 17 14 14 5 -3 9 1 9 9 0 7 -11 19 -25 25 -27 12 -33 4 -12 -17 10
-10 8 -11 -6 -5 -13 4 -17 13 -13 27 2 11 -1 26 -8 33 -16 16 -30 6 -16 -11 6
-7 6 -23 0 -45 -5 -18 -7 -37 -4 -41 3 -5 1 -9 -4 -9 -5 0 -9 -10 -8 -22 1
-20 -4 -23 -36 -23 -37 -1 -48 7 -29 20 5 3 12 1 16 -5 4 -6 12 -6 23 1 20 12
29 119 11 119 -6 0 -1 9 12 19 18 14 28 17 42 9 10 -5 21 -7 25 -4 3 3 0 6 -7
6 -7 0 -10 4 -7 9 4 5 2 21 -4 35 -7 19 -17 26 -35 26 -14 0 -25 4 -25 9 0 11
51 2 70 -13 8 -6 5 1 -5 16 -15 20 -26 25 -42 21 -14 -3 -23 -1 -23 6 0 6 11
11 25 11 25 0 29 9 25 58 -1 13 4 30 12 39 7 9 8 14 2 10 -7 -4 -14 2 -17 14
-7 27 -27 15 -27 -17 0 -13 -4 -24 -10 -24 -5 0 -10 14 -10 31 0 22 5 32 20
36 16 4 19 12 16 42 -2 20 -1 26 1 14 2 -13 9 -24 14 -24 5 -1 15 -2 22 -3 14
-2 25 20 26 50 1 12 9 39 18 60 24 54 27 98 8 90 -17 -6 -21 9 -5 19 15 10 12
35 -5 35 -8 0 -15 5 -15 11 0 5 -4 8 -9 5 -5 -3 -11 7 -14 23 -5 24 -10 28
-27 24 -25 -7 -73 12 -124 49 -39 28 -62 36 -51 18 3 -6 0 -11 -7 -12 -50 -6
-68 -4 -68 7 0 14 -49 7 -85 -12 -11 -6 -33 -9 -50 -8 -16 1 -33 -3 -36 -7 -8
-12 -27 -11 -128 2 -85 11 -113 7 -70 -8 l23 -9 -27 -5 c-14 -3 -24 -1 -21 3
6 11 -17 12 -42 2 -16 -6 -16 -7 2 -15 14 -6 13 -7 -8 -3 -31 6 -74 -9 -103
-34 -11 -10 -32 -21 -47 -25 -49 -11 -58 -30 -54 -114 4 -89 16 -127 54 -163
15 -14 35 -40 44 -57 19 -36 38 -42 38 -13 0 10 7 22 16 25 9 4 14 9 11 13 -8
7 11 33 25 33 5 0 6 -5 2 -12 -5 -8 0 -9 15 -5 24 6 47 -24 37 -49 -7 -18 -26
-18 -26 0 0 19 -28 28 -51 16 -24 -13 -25 -21 -2 -14 17 5 17 5 1 -9 -10 -8
-18 -19 -18 -26 0 -6 -5 -11 -11 -11 -6 0 -9 -10 -7 -23 2 -12 9 -21 16 -19
10 2 10 -3 2 -17 -13 -25 -13 -131 0 -131 6 0 10 -7 10 -16 0 -12 5 -11 20 7
10 13 19 18 20 12 0 -7 -5 -13 -11 -13 -6 0 -9 -7 -5 -15 7 -18 -15 -20 -32
-3 -9 9 -12 9 -12 -3 0 -18 20 -49 20 -31 0 6 4 12 9 12 6 0 9 -9 8 -20 -1
-12 -6 -19 -14 -15 -11 3 -11 0 -3 -15 9 -16 7 -24 -5 -37 -11 -10 -14 -23
-10 -37 4 -12 7 -31 7 -44 0 -17 4 -22 15 -18 8 3 19 6 24 6 5 0 9 7 9 15 0
13 3 13 20 3 15 -10 28 -10 62 0 24 7 54 15 68 17 23 5 24 4 5 -7 -11 -7 -26
-13 -33 -14 -21 -4 -27 -14 -9 -14 10 0 14 -5 11 -15 -7 -18 -44 -20 -44 -2 0
7 -3 8 -8 2 -8 -11 -16 -12 -120 -19 -41 -3 -80 -10 -88 -17 -16 -13 -17 -11
-14 48 2 49 -8 73 -21 52 -13 -20 -11 -83 3 -97 6 -6 8 -15 3 -19 -4 -5 -10
-2 -12 4 -3 9 -10 10 -24 3 -13 -7 -19 -7 -19 0 0 5 -7 10 -15 10 -8 0 -15 -4
-15 -9 0 -5 -6 -11 -12 -14 -8 -3 -13 4 -13 19 0 13 6 24 13 24 7 0 10 5 7 10
-4 6 -11 7 -17 4 -8 -5 -9 5 -5 30 7 46 -8 44 -41 -4 -31 -46 -56 -49 -49 -7
3 22 -1 36 -12 45 -9 7 -11 11 -6 10 16 -4 55 35 55 54 0 12 11 19 38 23 55
10 63 16 14 11 -34 -3 -41 -2 -32 9 8 9 4 11 -16 7 -18 -3 -25 -1 -20 6 9 15
-14 62 -31 62 -7 0 -13 4 -13 9 0 5 -10 7 -21 4 -15 -4 -27 1 -39 17 l-18 23
-7 -21 c-3 -12 -11 -20 -16 -17 -13 9 -11 -9 4 -25 6 -8 2 -6 -10 3 -11 10
-27 17 -35 16 -28 -3 -46 2 -51 15 -6 14 16 16 29 3 23 -23 74 8 74 45 0 19
-1 20 -25 4 -24 -16 -25 -16 -25 8 0 34 53 72 112 80 51 8 66 19 49 40 -14 17
35 120 54 112 10 -3 10 4 3 32 -17 65 -20 166 -8 243 18 108 18 119 -4 177
-18 50 -19 61 -7 160 15 128 23 165 66 302 19 58 44 139 56 180 21 70 74 173
119 230 11 14 20 20 20 13 0 -6 -5 -15 -10 -18 -6 -4 -8 -10 -5 -15 3 -4 -2
-10 -10 -14 -8 -3 -15 -11 -15 -18 0 -10 2 -10 8 -1 4 6 8 -25 9 -70 3 -105 6
-136 15 -131 7 5 23 -55 19 -75 -1 -7 2 -10 7 -7 6 3 13 -1 16 -10 4 -10 2
-13 -7 -8 -9 6 -9 5 0 -7 8 -9 10 -29 6 -52 -5 -32 -3 -36 11 -31 9 3 13 10
10 15 -3 5 2 6 11 3 8 -4 18 -17 21 -30 3 -13 10 -21 15 -18 5 3 9 -13 9 -34
0 -27 -5 -42 -16 -46 -10 -4 -14 -13 -11 -27 3 -12 -2 -27 -13 -37 -22 -21
-36 -62 -20 -62 6 0 8 -4 5 -10 -8 -13 25 -61 36 -54 11 6 41 -21 32 -30 -10
-9 13 -7 44 5 34 13 45 29 31 46 -8 10 -4 15 13 22 24 10 24 10 2 10 -20 1
-21 4 -12 34 6 17 15 41 20 52 5 11 13 32 18 47 8 20 15 25 30 21 17 -4 20
-10 14 -32 -3 -14 -12 -35 -19 -46 -18 -29 -28 -69 -16 -61 5 3 12 -1 15 -8 3
-8 1 -17 -6 -19 -7 -2 -9 -7 -6 -11 7 -8 49 28 49 42 0 6 9 16 20 22 11 6 27
23 35 38 9 15 14 19 11 10 -11 -37 64 -38 101 0 23 23 123 82 139 82 2 0 4 -6
4 -14 0 -7 12 -22 28 -31 26 -17 26 -17 10 0 -15 16 -15 20 -2 29 15 11 10 51
-5 41 -13 -7 -6 32 8 49 32 38 -4 11 -57 -44 -33 -33 -62 -60 -65 -60 -4 0 -7
9 -7 21 0 11 4 18 9 15 12 -8 30 16 33 44 2 13 14 34 27 47 l23 24 -21 15
c-12 9 -19 19 -16 25 7 11 -45 169 -56 169 -13 0 -69 51 -69 64 0 7 9 22 20
34 11 12 20 29 20 40 0 45 45 55 82 17 l25 -25 -5 28 c-6 32 -50 99 -72 108
-24 10 -122 15 -139 8 -20 -9 -63 -5 -75 6 -4 4 1 11 13 15 17 5 19 10 11 25
-5 10 -18 21 -29 25 -10 3 -21 15 -24 25 -4 16 0 20 19 20 13 0 24 4 24 9 0
13 -27 21 -45 15 -8 -4 -22 -3 -31 0 -13 5 -14 9 -4 21 9 10 9 15 1 15 -6 0
-11 7 -11 15 0 8 4 15 9 15 5 0 8 8 6 18 -1 10 -9 16 -20 14 -18 -4 -18 -3 0
25 10 15 15 25 11 22 -9 -9 -50 30 -59 55 -6 16 -4 17 20 11 16 -4 51 -6 78
-4 56 4 228 3 308 -1 l52 -3 1 -41 c1 -22 7 -42 13 -44 6 -2 9 -7 6 -12 -3 -4
6 -15 20 -24 25 -16 25 -16 31 14 4 16 10 30 14 30 11 0 4 -58 -9 -74 -9 -11
-8 -17 8 -28 30 -21 52 -92 55 -177 3 -60 7 -77 23 -90 25 -19 62 -80 87 -141
38 -92 49 -117 87 -192 41 -82 73 -183 89 -284 8 -48 6 -81 -9 -163 -15 -83
-17 -118 -9 -186 5 -50 5 -111 0 -150 -8 -59 -7 -65 9 -65 10 0 25 7 34 16 8
9 23 13 31 10 23 -9 1 -33 -37 -41 -33 -8 -35 -12 -13 -36 16 -17 15 -18 -21
-16 -23 1 -40 -3 -42 -10 -3 -8 5 -13 21 -13 14 0 26 -5 26 -10 0 -6 -11 -8
-25 -4 -19 5 -25 2 -25 -10 0 -9 5 -16 11 -16 5 0 7 -5 4 -10 -4 -6 -11 -8
-16 -5 -5 4 -9 -3 -9 -14 0 -10 4 -21 9 -23 5 -1 4 -14 -2 -28 -20 -49 -19
-70 3 -70 11 0 20 -4 20 -10 0 -5 -7 -10 -15 -10 -8 0 -15 -5 -15 -11 0 -18
21 -50 29 -44 5 2 11 -4 14 -14 5 -22 34 -22 47 -1 12 19 127 23 134 4 3 -7 1
-14 -5 -14 -6 0 -7 -5 -3 -11 4 -7 20 -8 43 -4 58 10 68 14 68 30 0 13 -3 13
-19 -2 -17 -15 -18 -15 -18 1 0 11 -4 15 -12 10 -9 -5 -8 -2 1 10 8 9 20 15
28 12 17 -7 81 23 88 42 4 11 0 13 -18 8 -33 -8 -42 5 -14 19 18 9 25 9 39 -3
10 -8 18 -10 18 -5 0 6 15 21 33 33 17 12 24 19 15 16 -24 -7 -29 5 -12 34 14
23 14 23 9 3 -5 -17 -2 -23 9 -23 9 0 16 -5 16 -11 0 -5 4 -8 9 -5 5 4 20 2
33 -3 24 -9 24 -8 23 36 -1 24 -7 49 -14 56 -15 15 -14 38 2 35 6 -2 11 5 9
14 -2 11 3 18 12 18 20 0 31 -20 16 -30 -8 -5 -8 -9 4 -13 19 -7 10 -37 -10
-37 -11 0 -12 -4 -4 -19 6 -12 6 -22 1 -25 -5 -4 -4 -16 2 -30 8 -17 15 -22
23 -15 8 7 14 6 19 -1 3 -5 19 -8 36 -5 17 3 29 1 29 -6 0 -6 10 -9 23 -7 l22
3 3 1023 2 1022 -1290 0 -1290 0 0 -865z m143 780 c10 -10 15 -37 15 -90 0
-87 -11 -105 -64 -105 l-34 0 0 105 0 105 34 0 c19 0 41 -7 49 -15z m179 -87
c2 -57 3 -105 1 -107 -1 -2 -9 -1 -18 2 -21 9 -23 207 -1 207 11 0 15 -23 18
-102z m50 0 c2 -57 3 -105 1 -107 -1 -2 -9 -1 -18 2 -21 9 -23 207 -1 207 11
0 15 -23 18 -102z m108 -1 l0 -104 -40 -1 c-44 -2 -43 -3 -42 80 0 58 8 71 38
64 23 -6 25 -4 24 21 -3 38 -2 43 10 43 6 0 10 -41 10 -103z m-270 -17 c0 -47
3 -60 15 -60 12 0 15 13 15 60 0 47 3 60 15 60 12 0 15 -15 15 -74 l0 -75 -42
2 -43 2 -3 73 c-2 59 0 72 13 72 12 0 15 -13 15 -60z m368 48 c7 -7 12 -35 12
-63 0 -55 -12 -75 -45 -75 -33 0 -45 20 -45 71 0 66 42 103 78 67z m122 -82
c0 -97 -7 -116 -45 -116 -22 0 -45 17 -45 33 0 5 14 6 30 2 25 -5 30 -3 30 12
0 14 -7 19 -27 18 -27 0 -28 2 -31 59 -4 79 -1 85 47 84 l41 0 0 -92z m475
-486 c-9 -9 -17 -36 -20 -59 -2 -27 -11 -48 -25 -59 -14 -12 -22 -34 -27 -69
-3 -29 -10 -53 -15 -53 -5 0 -6 -4 -3 -10 3 -5 1 -10 -5 -10 -6 0 -8 -5 -4
-12 4 -6 3 -8 -4 -4 -6 3 -13 2 -17 -4 -8 -14 -45 6 -45 25 0 7 -4 15 -9 17
-5 2 -3 44 4 98 7 52 13 84 14 71 2 -39 22 -11 36 51 11 49 13 51 24 32 13
-20 14 -20 43 9 28 28 29 29 48 12 18 -17 19 -20 5 -35z m119 -56 c20 -19 20
-38 2 -53 -11 -9 -15 -7 -20 11 l-7 23 -11 -22 c-10 -21 -12 -22 -25 -5 -12
16 -13 16 -7 -3 l7 -20 -16 20 c-20 25 -21 39 -3 32 10 -4 13 -1 10 8 -5 12
10 21 43 24 6 0 19 -6 27 -15z m-195 -285 c33 -45 21 -44 -17 2 -18 21 -27 36
-19 33 8 -3 24 -19 36 -35z m-139 -186 c0 -21 -3 -24 -9 -14 -5 8 -7 20 -4 28
8 21 13 15 13 -14z m-446 -390 c-7 -72 -22 -123 -36 -123 -6 0 -7 18 -2 53 4
28 8 69 8 90 0 29 4 37 18 37 16 0 18 -6 12 -57z m1820 -149 c3 -9 -1 -14 -12
-14 -18 0 -42 18 -42 31 0 12 49 -3 54 -17z m194 1 c15 -32 15 -35 2 -35 -5 0
-10 9 -10 20 0 11 -4 20 -10 20 -5 0 -10 5 -10 10 0 19 17 10 28 -15z m-2438
-2 c0 -11 16 -25 43 -37 23 -11 45 -21 48 -23 4 -2 6 4 5 14 0 10 7 19 18 21
15 3 17 0 12 -14 -4 -10 -1 -21 6 -25 18 -12 3 -22 -32 -21 -16 0 -30 -4 -30
-9 0 -5 -7 -9 -15 -9 -17 0 -17 30 0 42 6 4 -1 8 -15 8 -32 1 -74 35 -66 55 8
21 26 19 26 -2z m1444 2 c3 -8 1 -15 -4 -15 -6 0 -10 7 -10 15 0 8 2 15 4 15
2 0 6 -7 10 -15z m524 -1 c18 -8 42 -14 54 -13 13 2 29 0 36 -4 7 -5 24 0 41
12 16 12 37 20 48 20 17 -1 17 -2 0 -6 -11 -3 -16 -11 -13 -19 4 -10 -2 -14
-20 -14 -19 0 -22 -3 -13 -13 6 -6 25 -12 42 -12 16 0 32 -6 35 -13 3 -11 0
-12 -15 -4 -12 7 -24 7 -37 0 -10 -5 -27 -11 -39 -12 -12 -2 -37 -6 -55 -10
-31 -7 -32 -7 -22 19 7 17 7 24 0 20 -6 -3 -10 0 -10 8 0 11 -9 13 -42 7 -49
-9 -45 -10 -48 10 -7 44 7 50 58 24z m-1878 -10 c0 -8 -5 -12 -10 -9 -6 4 -8
11 -5 16 9 14 15 11 15 -7z m2280 7 c0 -5 -9 -7 -20 -4 -11 3 -20 7 -20 9 0 2
9 4 20 4 11 0 20 -4 20 -9z m-1997 -16 c0 -6 -8 -12 -19 -14 -10 -1 -26 -9
-34 -16 -8 -7 -28 -15 -43 -17 -15 -1 -26 -7 -25 -13 2 -5 11 -9 21 -8 9 2 17
-1 17 -6 0 -5 11 -12 25 -15 18 -5 25 -13 25 -31 0 -14 -5 -25 -11 -25 -5 0
-8 4 -5 9 3 5 -3 11 -13 14 -24 6 -22 -21 4 -39 10 -8 13 -14 7 -14 -7 0 -12
-4 -12 -10 0 -5 8 -6 17 -3 12 5 15 2 11 -9 -4 -9 -2 -20 4 -26 6 -6 7 -15 4
-20 -7 -12 -46 -4 -46 9 0 17 5 24 15 21 5 -2 2 5 -6 15 -9 10 -14 25 -11 33
4 12 2 13 -10 3 -10 -9 -24 -10 -44 -4 -16 4 -35 6 -43 3 -9 -3 -11 0 -6 7 5
8 20 10 46 6 21 -4 39 -4 39 -1 0 3 -24 21 -52 40 -29 19 -59 44 -65 55 -11
17 -9 22 9 35 12 9 24 12 28 8 3 -4 26 -8 52 -9 39 -2 46 0 41 13 -4 12 0 14
20 9 14 -4 28 -2 32 5 8 13 26 9 28 -5z m862 -14 c-3 -6 -11 -11 -17 -11 -6 0
-6 6 2 15 14 17 26 13 15 -4z m952 -3 c-3 -8 -6 -5 -6 6 -1 11 2 17 5 13 3 -3
4 -12 1 -19z m-1751 -13 c1 -14 -2 -25 -7 -25 -5 0 -9 4 -9 9 0 5 -11 8 -25 6
-36 -3 -31 13 8 24 17 5 32 10 32 10 0 1 1 -10 1 -24z m737 10 c7 -17 -9 -30
-18 -15 -3 5 -11 10 -16 10 -6 0 -8 -4 -4 -9 16 -27 -72 -35 -99 -9 -15 14
-16 18 -5 19 43 4 72 9 77 13 11 12 60 5 65 -9z m-173 -5 c0 -5 -2 -10 -4 -10
-3 0 -8 5 -11 10 -3 6 -1 10 4 10 6 0 11 -4 11 -10z m890 6 c0 -3 -4 -8 -10
-11 -5 -3 -10 -1 -10 4 0 6 5 11 10 11 6 0 10 -2 10 -4z m370 -5 c0 -5 -11 -8
-25 -7 -33 1 -33 16 0 16 14 0 25 -4 25 -9z m85 -1 c-3 -5 -12 -10 -20 -10 -8
0 -17 5 -20 10 -4 6 5 10 20 10 15 0 24 -4 20 -10z m45 1 c0 -12 -20 -25 -27
-18 -7 7 6 27 18 27 5 0 9 -4 9 -9z m-1446 -21 c29 0 34 -3 29 -17 -4 -11 -8
-12 -11 -5 -6 18 -52 15 -74 -5 -11 -10 -18 -12 -18 -4 0 7 -9 9 -25 5 -21 -5
-24 -3 -19 11 9 22 45 35 66 24 9 -5 33 -9 52 -9z m462 5 c-3 -9 0 -15 9 -15
8 0 15 -4 15 -10 0 -5 -11 -10 -25 -10 -14 0 -25 4 -25 9 0 18 12 41 22 41 6
0 8 -7 4 -15z m-398 -36 c-3 -8 -7 -3 -11 10 -4 17 -3 21 5 13 5 -5 8 -16 6
-23z m970 4 c0 -25 -1 -25 -14 -8 -13 18 -11 35 5 35 5 0 9 -12 9 -27z m-45
10 c-7 -2 -19 -2 -25 0 -7 3 -2 5 12 5 14 0 19 -2 13 -5z m358 -16 c-10 -9
-11 -8 -5 6 3 10 9 15 12 12 3 -3 0 -11 -7 -18z m-1161 -3 c0 -2 -7 -4 -15 -4
-8 0 -15 4 -15 10 0 5 7 7 15 4 8 -4 15 -8 15 -10z m-712 -36 c7 1 12 -7 12
-18 0 -16 -5 -19 -24 -14 -16 4 -25 1 -29 -10 -5 -11 0 -16 13 -16 24 0 25 -9
5 -36 -14 -18 -14 -18 -15 4 0 12 -7 25 -15 28 -23 9 -19 54 5 54 22 0 27 15
8 23 -10 4 -9 8 2 16 12 8 16 6 21 -12 3 -12 11 -21 17 -19z m775 30 c2 4 2 2
1 -5 -2 -6 0 -14 4 -16 4 -2 1 -2 -6 0 -8 1 -22 3 -33 3 -12 0 -16 5 -13 15 5
11 11 12 24 5 10 -5 20 -7 23 -2z m133 -14 c14 4 24 2 24 -4 0 -13 -97 -13
-105 0 -13 22 7 31 32 15 15 -10 34 -14 49 -11z m-1185 -34 c11 0 17 -4 14
-10 -3 -5 -2 -10 4 -10 5 0 13 9 16 20 3 11 11 20 18 20 8 0 8 -3 -1 -12 -7
-7 -12 -23 -12 -36 0 -18 5 -23 22 -20 11 2 23 -3 25 -9 3 -8 -5 -13 -20 -13
-21 0 -24 -4 -20 -21 6 -20 3 -21 -38 -16 -24 3 -45 6 -46 6 -2 1 -3 8 -3 16
0 7 -8 19 -17 24 -16 9 -14 11 15 11 4 0 7 -4 7 -10 0 -10 35 -39 49 -40 5 0
2 8 -7 18 -13 14 -14 21 -5 30 8 8 4 13 -16 18 -20 5 -25 11 -21 25 4 11 2 19
-4 19 -6 0 -11 10 -11 23 1 21 2 20 16 -5 8 -17 23 -28 35 -28z m2099 19 c0
-21 -25 -42 -42 -36 -8 4 -7 6 5 6 19 1 24 21 5 21 -23 -1 -44 -25 -46 -52 -1
-16 3 -28 9 -28 5 0 7 5 4 10 -3 6 -1 10 4 10 17 0 13 -21 -6 -35 -14 -11 -20
-10 -30 4 -11 14 -12 14 -13 -4 0 -17 -3 -15 -15 8 -8 15 -12 34 -9 41 3 7 -2
19 -11 26 -12 10 -21 10 -47 -1 -18 -7 -40 -21 -50 -31 -10 -10 -23 -16 -28
-13 -12 7 -1 35 14 35 6 0 30 9 51 21 66 35 112 33 106 -3 -2 -16 27 5 32 22
6 25 67 24 67 -1z m185 1 c2 -9 -5 -17 -16 -17 -13 -1 -19 5 -19 18 0 24 32
23 35 -1z m-1435 0 c0 -5 -4 -10 -10 -10 -5 0 -10 5 -10 10 0 6 5 10 10 10 6
0 10 -4 10 -10z m245 0 c3 -5 1 -10 -4 -10 -6 0 -11 5 -11 10 0 6 2 10 4 10 3
0 8 -4 11 -10z m203 -32 c7 1 12 -5 12 -13 0 -9 -6 -12 -16 -8 -12 4 -15 2
-12 -8 3 -8 11 -13 17 -11 14 3 15 -15 1 -23 -5 -3 -10 -1 -10 5 0 6 -4 9 -9
5 -5 -3 -16 2 -24 10 -17 17 -53 20 -61 6 -4 -5 0 -11 6 -14 7 -2 1 -8 -14
-12 -16 -4 -28 -11 -28 -16 0 -15 -40 -10 -56 6 -14 13 -13 15 8 16 48 3 53 4
56 22 4 21 -21 23 -41 3 -13 -13 -17 -13 -33 0 -18 14 -18 14 1 12 12 -2 19 2
18 10 -4 19 48 15 63 -5 7 -10 16 -15 20 -11 4 4 1 14 -6 23 -22 27 -3 27 39
1 23 -15 41 -23 42 -19 1 5 1 22 1 38 -1 29 -1 29 7 5 4 -14 13 -24 19 -22z
m552 28 c0 -8 -4 -18 -10 -21 -5 -3 -10 3 -10 14 0 12 5 21 10 21 6 0 10 -6
10 -14z m-93 -12 c2 -5 -11 -11 -28 -12 -27 -2 -30 0 -20 12 13 15 43 15 48 0z
m-802 -4 c3 -5 1 -10 -4 -10 -6 0 -11 5 -11 10 0 6 2 10 4 10 3 0 8 -4 11 -10z
m1193 -23 c3 -27 -20 -39 -33 -17 -4 6 -1 9 6 8 6 -2 14 3 16 10 3 6 0 12 -6
12 -6 0 -11 5 -11 11 0 23 25 1 28 -24z m-1297 -18 c11 -5 16 -15 13 -21 -5
-7 -11 -6 -19 5 -7 10 -20 17 -29 17 -10 0 -14 5 -11 10 3 6 1 10 -5 10 -6 0
-8 5 -5 10 4 6 12 4 21 -5 9 -8 24 -20 35 -26z m178 22 c18 -15 19 -20 6 -24
-8 -4 -14 -2 -12 3 1 5 -7 16 -18 24 -11 8 -15 16 -9 16 6 0 21 -8 33 -19z
m786 0 c3 -5 1 -12 -5 -16 -5 -3 -10 1 -10 9 0 18 6 21 15 7z m-102 -34 c15
-23 12 -77 -4 -77 -11 0 -30 35 -24 44 3 3 2 4 -1 1 -9 -6 -44 14 -44 26 0 5
8 9 18 7 9 -2 16 3 15 10 -5 21 24 13 40 -11z m225 5 c-10 -2 -18 -7 -18 -10
0 -10 -58 -34 -68 -28 -5 3 -16 -4 -25 -14 -15 -18 -15 -20 11 -38 15 -11 35
-18 45 -17 9 2 17 -1 17 -6 0 -5 4 -9 8 -9 4 0 8 9 8 20 0 15 -5 19 -21 15
-17 -5 -18 -5 -3 5 13 8 25 5 53 -12 l37 -21 -23 -13 c-13 -7 -26 -8 -29 -4
-3 5 -12 5 -19 1 -16 -10 -96 29 -117 56 -11 15 -15 16 -23 4 -7 -11 -9 -11
-13 0 -3 8 2 20 11 27 15 12 15 13 0 9 -9 -3 -22 0 -28 6 -13 13 -15 31 -2 22
5 -3 12 -1 16 5 3 5 14 10 23 9 14 0 14 -2 -2 -8 -29 -11 -8 -19 49 -19 34 1
55 6 67 19 11 11 25 15 40 11 19 -5 20 -7 6 -10z m387 9 c3 -5 1 -12 -5 -16
-5 -3 -10 1 -10 9 0 18 6 21 15 7z m-1525 -22 c0 -5 -7 -9 -15 -9 -15 0 -20
12 -9 23 8 8 24 -1 24 -14z m260 3 c0 -4 -7 -18 -16 -31 -16 -22 -16 -23 5
-12 17 10 21 9 21 -4 0 -9 5 -13 10 -10 6 3 10 -1 10 -9 0 -10 6 -13 16 -9 9
3 19 0 24 -6 4 -7 20 -13 36 -15 16 -1 45 -9 64 -18 19 -9 43 -18 53 -22 21
-7 23 -42 2 -50 -8 -3 -15 -14 -15 -25 0 -23 -18 -37 -42 -33 -9 2 -19 -1 -21
-5 -3 -5 6 -10 20 -11 22 -2 73 -46 73 -63 0 -11 -29 -19 -47 -12 -11 4 -14 3
-9 -6 6 -9 3 -9 -13 1 -32 19 -34 38 -5 38 13 0 27 -7 30 -15 6 -15 24 -11 24
5 0 8 -15 14 -60 25 -3 1 -13 5 -22 9 -9 4 -26 3 -37 -4 -18 -9 -21 -8 -21 7
0 15 -2 15 -9 4 -6 -10 -5 -18 3 -25 15 -13 29 -59 15 -50 -5 3 -9 11 -9 17 0
7 -12 25 -26 40 -19 21 -29 25 -39 17 -9 -7 -16 -6 -24 4 -7 8 -20 12 -28 9
-12 -5 -14 -3 -8 7 5 9 4 11 -4 6 -6 -4 -9 -12 -6 -17 4 -5 1 -9 -5 -9 -8 0
-10 9 -6 25 5 21 3 25 -16 25 -13 0 -18 -3 -12 -8 18 -11 24 -62 8 -62 -17 0
-19 -37 -2 -42 7 -3 2 -7 -11 -11 -22 -5 -23 -4 -18 33 5 42 -5 53 -41 43 -11
-2 -23 0 -26 6 -4 6 0 12 8 12 14 1 22 3 41 8 2 0 0 13 -6 27 -8 24 -8 25 6
14 12 -10 16 -9 21 4 6 15 9 15 30 1 13 -8 24 -11 24 -6 0 19 -44 38 -67 28
-28 -12 -73 -1 -73 18 0 10 10 15 30 15 22 0 30 5 30 18 1 16 1 16 11 -1 6 -9
14 -15 20 -12 5 4 9 0 9 -8 0 -8 7 -17 15 -21 8 -3 15 0 15 6 0 6 3 8 7 5 3
-4 12 -2 18 3 10 8 14 2 19 -25 4 -19 4 -40 1 -45 -3 -5 3 -18 15 -30 21 -21
27 -11 11 19 -13 23 42 50 64 31 8 -6 18 -9 23 -6 5 3 9 -1 9 -8 0 -9 -7 -12
-16 -9 -13 5 -14 4 -3 -8 11 -12 15 -12 26 2 10 15 16 15 49 4 33 -11 37 -11
36 4 0 24 -17 98 -18 83 -1 -8 -9 -10 -27 -6 -19 5 -25 4 -20 -5 14 -22 -13
-10 -33 15 -12 15 -21 21 -21 14 0 -7 -11 -1 -25 14 -24 26 -45 34 -45 17 0
-6 5 -13 10 -16 6 -3 10 -12 10 -18 -1 -7 -6 -6 -13 4 -8 11 -29 16 -65 16
-59 1 -67 5 -58 29 5 14 9 14 23 3 13 -11 17 -11 20 -2 3 8 15 11 31 7 23 -5
21 -2 -13 21 -22 15 -32 25 -22 21 9 -3 17 -1 17 5 0 6 6 9 14 6 8 -3 17 1 20
9 6 15 26 20 26 6z m-1167 -17 c-3 -9 -8 -14 -10 -11 -3 3 -2 9 2 15 9 16 15
13 8 -4z m244 0 c0 -8 -6 -15 -14 -15 -7 0 -13 7 -13 15 0 8 6 15 13 15 8 0
14 -7 14 -15z m820 9 c-3 -3 -12 -4 -19 -1 -8 3 -5 6 6 6 11 1 17 -2 13 -5z
m1283 -4 c0 -5 -5 -10 -11 -10 -5 0 -7 5 -4 10 3 6 8 10 11 10 2 0 4 -4 4 -10z
m-2393 -29 c-1 -15 -4 -17 -14 -9 -7 5 -10 14 -7 19 10 16 23 9 21 -10z m1013
-33 c0 -5 -4 -6 -10 -3 -5 3 -10 -1 -10 -9 0 -8 -5 -18 -11 -22 -8 -4 -9 0 -4
15 4 13 2 21 -5 21 -6 0 -9 4 -6 9 7 11 46 2 46 -11z m300 12 c0 -5 -2 -10 -4
-10 -3 0 -8 5 -11 10 -3 6 -1 10 4 10 6 0 11 -4 11 -10z m-259 -17 c10 -11 10
-14 2 -9 -7 4 -18 4 -24 0 -8 -4 -7 -9 2 -15 12 -7 12 -10 0 -21 -8 -8 -11 -8
-7 -1 3 6 2 13 -4 15 -11 3 -2 48 10 48 4 0 14 -8 21 -17z m-186 -3 c-3 -5
-13 -10 -20 -10 -9 0 -12 -6 -9 -15 4 -10 0 -15 -10 -15 -30 0 5 46 37 49 5 1
5 -3 2 -9z m615 -20 c0 -5 -4 -10 -10 -10 -5 0 -10 5 -10 10 0 6 5 10 10 10 6
0 10 -4 10 -10z m-564 -18 c-13 -22 -74 -42 -98 -33 -19 7 -20 10 -7 15 9 4
20 6 25 5 24 -4 55 2 66 15 14 15 24 14 14 -2z m977 -3 c-16 -16 -89 -23 -97
-10 -8 12 7 14 62 11 20 -1 32 3 32 11 0 7 3 9 7 6 4 -4 2 -12 -4 -18z m70 3
c5 -8 6 -16 3 -19 -3 -4 -6 -1 -6 6 0 8 -7 10 -19 6 -11 -3 -21 0 -24 8 -7 18
35 17 46 -1z m-788 -2 c3 -5 2 -10 -4 -10 -5 0 -13 5 -16 10 -3 6 -2 10 4 10
5 0 13 -4 16 -10z m-220 -25 c6 0 16 4 24 9 11 7 13 5 8 -7 -3 -9 1 -23 10
-32 8 -9 12 -19 9 -23 -6 -6 -21 10 -29 31 -1 4 -11 9 -22 11 -11 2 -21 11
-22 22 -2 15 -1 15 5 4 4 -9 12 -15 17 -15z m1060 15 c3 -5 -3 -10 -14 -10
-12 0 -21 5 -21 10 0 6 6 10 14 10 8 0 18 -4 21 -10z m470 0 c-3 -5 -12 -7
-20 -3 -21 7 -19 13 6 13 11 0 18 -4 14 -10z m-990 -29 c3 -6 -3 -9 -14 -8
-11 0 -17 5 -15 9 7 11 22 10 29 -1z m779 -7 c4 -10 1 -14 -6 -12 -15 5 -23
28 -10 28 5 0 13 -7 16 -16z m66 -19 c0 -5 -5 -3 -10 5 -5 8 -10 20 -10 25 0
6 5 3 10 -5 5 -8 10 -19 10 -25z m50 20 c11 -13 10 -14 -4 -9 -9 3 -16 10 -16
15 0 13 6 11 20 -6z m90 10 c0 -2 -10 -9 -22 -15 -22 -11 -22 -10 -4 4 21 17
26 19 26 11z m-2345 -27 c-7 15 9 16 35 2 11 -6 17 -17 14 -25 -5 -11 -11 -12
-26 -4 -11 6 -22 8 -25 5 -9 -9 -31 18 -26 32 4 9 9 8 20 -5 8 -10 12 -12 8
-5z m1385 2 c0 -5 -5 -10 -11 -10 -5 0 -7 5 -4 10 3 6 8 10 11 10 2 0 4 -4 4
-10z m746 -15 c4 -8 12 -15 20 -15 8 0 14 -4 14 -10 0 -5 -7 -7 -15 -4 -8 4
-15 1 -15 -6 0 -6 -4 -9 -10 -5 -5 3 -7 12 -3 20 3 8 0 15 -6 15 -6 0 -11 5
-11 10 0 16 20 12 26 -5z m-1424 -17 c-7 -7 -12 -8 -12 -2 0 14 12 26 19 19 2
-3 -1 -11 -7 -17z m201 8 c4 -10 1 -13 -9 -9 -15 6 -19 23 -5 23 5 0 11 -7 14
-14z m-97 -17 c3 -5 -4 -9 -15 -9 -10 0 -28 -3 -38 -6 -15 -5 -15 -4 -3 5 8 6
11 11 7 11 -5 0 -6 4 -3 9 7 10 44 3 52 -10z m509 -6 c-2 -10 -4 -20 -4 -23
-1 -3 -5 2 -11 10 -6 9 -5 17 3 22 16 10 16 10 12 -9z m952 -1 c-4 12 -2 15 9
11 7 -3 14 -9 14 -13 0 -5 8 -16 17 -26 16 -16 16 -16 -7 -10 -24 7 -24 6 -6
-8 17 -14 17 -16 3 -16 -9 0 -21 8 -27 18 -10 15 -10 15 -8 -3 4 -24 -35 -33
-58 -15 -11 10 -14 10 -15 -1 -1 -8 -2 -21 -3 -29 0 -8 -10 -16 -21 -17 -16
-1 -16 -1 -2 3 9 3 17 10 17 16 0 6 -3 9 -6 6 -3 -3 -17 5 -30 19 -24 24 -25
27 -8 42 9 9 14 11 10 4 -4 -7 6 -14 26 -18 18 -4 38 -11 43 -16 6 -4 17 -4
25 1 12 8 10 10 -7 10 -12 0 -25 5 -28 10 -4 6 -12 7 -18 4 -7 -4 -9 -4 -5 1
4 4 2 15 -5 23 -10 13 -9 14 10 4 18 -10 25 -9 35 2 11 12 16 12 32 -2 18 -16
19 -16 13 0z m-1399 -9 c-2 -10 -11 -18 -21 -19 -14 -2 -14 -1 -1 3 8 3 13 11
10 19 -3 8 -1 14 5 14 6 0 9 -8 7 -17z m1472 3 c0 -11 -19 -15 -25 -6 -3 5 1
10 9 10 9 0 16 -2 16 -4z m-2200 -16 c0 -5 -5 -10 -11 -10 -5 0 -7 5 -4 10 3
6 8 10 11 10 2 0 4 -4 4 -10z m150 -16 c0 -2 -9 -8 -20 -14 -15 -8 -25 -8 -38
0 -14 9 -13 10 7 4 19 -5 23 -3 18 9 -4 11 0 13 14 10 10 -3 19 -7 19 -9z
m520 12 c0 -3 -4 -8 -10 -11 -5 -3 -10 -1 -10 4 0 6 5 11 10 11 6 0 10 -2 10
-4z m-456 -24 c5 -9 -23 -35 -42 -39 -17 -4 -15 17 3 23 8 4 12 10 9 15 -3 5
2 9 10 9 8 0 17 -4 20 -8z m431 -2 c3 -5 -1 -10 -9 -10 -8 0 -18 5 -21 10 -3
6 1 10 9 10 8 0 18 -4 21 -10z m265 -11 c0 -6 -4 -7 -10 -4 -6 3 -10 -4 -10
-17 0 -16 3 -19 9 -10 5 9 17 11 36 6 25 -6 27 -5 21 17 -6 20 -5 21 4 7 6
-10 18 -18 27 -18 10 0 13 -6 9 -16 -3 -9 -6 -17 -6 -20 0 -2 -7 -1 -15 2 -11
4 -13 2 -9 -9 4 -12 1 -14 -15 -10 -16 4 -19 9 -11 18 9 10 4 13 -22 11 -18
-2 -40 2 -49 7 -13 8 -13 12 5 32 20 23 36 24 36 4z m1009 0 c-16 -10 -23 -4
-14 10 3 6 11 8 17 5 6 -4 5 -9 -3 -15z m-1143 3 c6 -4 8 -18 5 -30 l-6 -24
-30 28 c-17 16 -22 25 -12 21 9 -3 17 -2 17 3 0 12 11 13 26 2z m-659 -34 c-3
-8 -6 -5 -6 6 -1 11 2 17 5 13 3 -3 4 -12 1 -19z m947 6 c4 -9 4 -19 1 -22 -3
-3 -5 0 -5 6 0 6 -7 9 -15 6 -15 -6 -21 7 -8 19 11 11 21 8 27 -9z m206 6 c0
-5 -5 -10 -11 -10 -5 0 -7 5 -4 10 3 6 8 10 11 10 2 0 4 -4 4 -10z m890 -6 c0
-9 5 -12 12 -8 7 4 8 3 4 -5 -4 -7 -13 -10 -19 -8 -13 4 -19 37 -6 37 5 0 9
-7 9 -16z m-2009 -11 c1 -10 1 -20 1 -23 0 -3 17 -4 39 -2 26 3 39 0 39 -8 0
-7 -8 -10 -20 -7 -11 3 -22 1 -25 -3 -7 -12 -35 -6 -45 9 -4 8 -13 10 -19 7
-14 -9 -14 0 1 24 16 25 28 26 29 3z m1849 0 c0 -10 -4 -14 -8 -8 -4 6 -11 13
-16 18 -5 4 -2 7 7 7 10 0 17 -8 17 -17z m-1370 -2 c24 -7 24 -8 -7 -12 -18
-3 -33 -2 -33 2 0 4 -8 10 -17 12 -12 3 -9 5 7 5 14 0 36 -3 50 -7z m102 -14
c-4 -14 -7 -16 -13 -5 -12 19 -11 25 5 25 8 0 11 -8 8 -20z m1348 -7 c0 -5 8
-10 18 -11 11 -1 8 -4 -8 -8 -14 -4 -37 -4 -52 0 -21 6 -27 3 -32 -14 -4 -17
-7 -18 -20 -7 -17 14 -22 35 -6 25 6 -3 10 -2 10 3 0 5 18 9 39 8 22 -1 37 2
35 6 -3 4 0 8 5 8 6 0 11 -4 11 -10z m-997 -14 c4 -10 0 -12 -15 -8 -15 4 -17
7 -6 13 17 11 15 11 21 -5z m67 -23 c0 -7 -6 -10 -14 -7 -8 3 -12 13 -9 25 5
16 8 18 14 7 5 -7 9 -18 9 -25z m134 8 c-7 -8 -35 9 -29 19 4 6 11 5 20 -3 7
-6 11 -14 9 -16z m-637 13 c-3 -3 -12 -4 -19 -1 -8 3 -5 6 6 6 11 1 17 -2 13
-5z m1393 -25 c0 23 9 8 15 -28 3 -19 2 -30 -4 -27 -5 4 -12 2 -16 -4 -10 -16
-22 -12 -28 9 -4 15 0 19 14 16 20 -4 26 10 9 20 -5 3 -10 12 -10 18 0 7 4 6
10 -3 8 -12 10 -12 10 -1z m65 1 c3 -5 -1 -22 -9 -37 l-14 -28 -11 28 c-14 37
-14 42 3 28 9 -7 17 -8 20 -2 3 5 0 12 -6 14 -9 4 -10 6 -1 6 6 1 15 -3 18 -9z
m20 -41 c-4 -17 -2 -19 10 -9 8 7 15 10 15 6 0 -3 0 -9 0 -13 0 -4 -11 -8 -26
-10 -14 -2 -24 0 -21 4 2 4 7 16 10 26 9 24 17 21 12 -4z m-1115 -21 c0 -16
-3 -19 -11 -11 -6 6 -8 16 -5 22 11 17 16 13 16 -11z m1190 16 c0 -8 -19 -13
-24 -6 -3 5 1 9 9 9 8 0 15 -2 15 -3z m-1356 -23 c67 12 86 8 86 -21 0 -22
-34 -28 -46 -8 -5 7 -2 8 7 3 11 -6 11 -5 2 5 -8 8 -21 10 -40 5 -21 -6 -23
-9 -10 -12 9 -3 17 -9 17 -14 0 -5 3 -8 8 -8 21 4 24 -3 6 -16 -19 -14 -19
-14 1 -9 11 2 33 1 50 -4 28 -8 28 -9 7 -14 -12 -3 -22 -2 -22 3 0 5 -7 9 -16
9 -8 0 -12 -4 -9 -10 3 -6 -3 -10 -14 -10 -12 0 -21 7 -21 15 0 8 -5 15 -11
15 -5 0 -7 5 -4 10 3 6 -1 10 -9 10 -10 0 -13 6 -10 15 4 8 1 15 -5 15 -6 0
-10 -3 -10 -7 4 -24 -2 -53 -12 -53 -6 0 -8 9 -4 20 9 27 -3 44 -20 30 -12
-10 -12 -7 -2 14 6 13 14 20 17 15 4 -5 29 -5 64 2z m141 -11 c10 -11 21 -18
24 -15 4 2 13 0 20 -4 10 -6 9 -10 -3 -14 -9 -4 -21 0 -28 7 -11 11 -14 11
-23 0 -7 -9 -15 -11 -25 -4 -10 6 -11 10 -2 10 6 0 12 7 12 16 0 9 -5 12 -12
8 -7 -4 -8 -3 -4 4 10 17 20 15 41 -8z m190 -2 c5 4 5 2 1 -5 -9 -16 -33 -6
-33 14 0 14 1 14 12 -1 7 -8 16 -12 20 -8z m260 12 c3 -5 1 -10 -4 -10 -6 0
-11 5 -11 10 0 6 2 10 4 10 3 0 8 -4 11 -10z m319 -5 c3 -8 1 -15 -3 -15 -5 0
-11 7 -15 15 -3 8 -1 15 3 15 5 0 11 -7 15 -15z m-1010 -20 c-4 -8 -11 -12
-16 -9 -6 4 -5 10 3 15 19 12 19 11 13 -6z m466 -8 c0 -13 5 -28 12 -35 9 -9
9 -12 0 -12 -7 0 -12 4 -12 9 0 5 -10 7 -22 5 -13 -2 -17 -2 -10 2 6 3 12 17
12 30 0 13 5 24 10 24 6 0 10 -10 10 -23z m365 13 c3 -5 1 -10 -4 -10 -6 0
-11 5 -11 10 0 6 2 10 4 10 3 0 8 -4 11 -10z m595 -9 c0 -4 -8 -7 -18 -8 -10
-1 -19 4 -19 11 0 8 8 11 19 8 10 -2 18 -7 18 -11z m-816 -16 c-4 -8 -11 -12
-16 -9 -6 4 -5 10 3 15 19 12 19 11 13 -6z m140 -5 c10 -10 -48 -5 -64 5 -6 3
-10 1 -10 -4 0 -6 5 -11 11 -11 8 0 7 -5 -1 -15 -7 -9 -15 -13 -18 -11 -2 3
-12 1 -21 -3 -10 -6 -20 -4 -29 5 -10 11 -8 15 12 20 14 3 30 12 36 19 11 14
68 10 84 -5z m263 14 c-3 -3 -12 -4 -19 -1 -8 3 -5 6 6 6 11 1 17 -2 13 -5z
m-1470 -28 c-4 -10 -14 -10 -64 -4 -29 3 -10 13 27 14 26 1 39 -3 37 -10z
m1626 -7 c5 -17 3 -18 -9 -8 -12 10 -15 10 -12 -2 2 -8 9 -19 16 -24 10 -8 9
-11 -7 -11 -11 0 -19 5 -18 10 1 5 -9 13 -23 17 -24 7 -24 7 -2 8 12 1 21 4
21 9 -5 29 26 31 34 1z m84 2 c-1 -24 -49 -26 -64 -3 -10 16 -7 18 27 19 30 1
38 -3 37 -16z m203 8 c0 -4 -11 -6 -25 -6 -13 0 -22 3 -20 8 6 9 45 8 45 -2z
m-2492 -11 c-2 -5 -8 -9 -13 -9 -5 0 -11 4 -13 9 -1 5 4 9 13 9 9 0 14 -4 13
-9z m966 -3 c-7 -17 -20 -20 -29 -6 -3 5 3 12 12 14 10 3 19 5 20 6 1 0 0 -6
-3 -14z m373 2 c-1 -7 8 -12 20 -11 18 0 20 -2 11 -13 -9 -11 -14 -11 -29 3
-10 9 -25 14 -33 11 -8 -3 -19 0 -24 6 -8 9 -1 12 24 14 21 1 33 -3 31 -10z
m613 5 c0 -4 -9 -8 -20 -9 -11 -1 -20 2 -20 8 0 5 9 9 20 9 11 0 20 -4 20 -8z
m-1832 -20 c2 -7 -2 -10 -12 -6 -9 3 -16 11 -16 16 0 13 23 5 28 -10z m1830
-13 c-5 -14 -21 -14 -26 0 -2 6 4 11 13 11 9 0 15 -5 13 -11z m37 -9 c3 -5 1
-10 -4 -10 -6 0 -11 5 -11 10 0 6 2 10 4 10 3 0 8 -4 11 -10z m165 0 c12 -8 9
-10 -13 -10 -16 0 -26 4 -22 10 8 12 16 12 35 0z m-693 -6 c-3 -3 -12 -4 -19
-1 -8 3 -5 6 6 6 11 1 17 -2 13 -5z"/>
<path d="M100 2459 c0 -24 4 -30 18 -27 10 2 18 14 20 31 3 22 -1 27 -17 27
-17 0 -21 -6 -21 -31z"/>
<path d="M100 2376 c0 -30 4 -36 21 -36 17 0 20 5 17 32 -2 22 -9 34 -20 36
-15 3 -18 -4 -18 -32z"/>
<path d="M434 2417 c-10 -27 0 -72 16 -72 11 0 15 11 15 39 0 40 -20 61 -31
33z"/>
<path d="M547 2423 c-4 -3 -7 -24 -7 -45 0 -27 4 -38 15 -38 11 0 15 12 15 45
0 42 -7 54 -23 38z"/>
<path d="M650 2385 c0 -33 4 -45 15 -45 11 0 15 12 15 45 0 33 -4 45 -15 45
-11 0 -15 -12 -15 -45z"/>
<path d="M1100 1811 c0 -5 5 -13 10 -16 6 -3 10 -2 10 4 0 5 -4 13 -10 16 -5
3 -10 2 -10 -4z"/>
<path d="M2210 660 c0 -5 5 -10 11 -10 5 0 7 5 4 10 -3 6 -8 10 -11 10 -2 0
-4 -4 -4 -10z"/>
<path d="M2223 619 c-1 -11 3 -19 9 -17 15 5 19 38 4 38 -6 0 -12 -9 -13 -21z"/>
<path d="M2162 508 c5 -15 28 -23 28 -10 0 5 -7 13 -16 16 -10 4 -14 1 -12 -6z"/>
<path d="M1340 510 c0 -5 5 -10 11 -10 5 0 7 5 4 10 -3 6 -8 10 -11 10 -2 0
-4 -4 -4 -10z"/>
<path d="M1406 484 c-4 -9 -4 -19 -1 -22 2 -3 7 3 11 12 4 9 4 19 1 22 -2 3
-7 -3 -11 -12z"/>
<path d="M1145 440 c4 -6 11 -8 16 -5 14 9 11 15 -7 15 -8 0 -12 -5 -9 -10z"/>
<path d="M1490 423 c0 -17 15 -16 30 1 9 12 8 15 -9 13 -12 -1 -21 -7 -21 -14z"/>
<path d="M1255 400 c-3 -5 -1 -10 4 -10 6 0 11 5 11 10 0 6 -2 10 -4 10 -3 0
-8 -4 -11 -10z"/>
<path d="M1326 385 c-4 -12 17 -45 28 -45 3 0 1 30 -3 53 -2 12 -19 8 -25 -8z"/>
<path d="M2330 70 c0 -5 5 -10 11 -10 5 0 7 5 4 10 -3 6 -8 10 -11 10 -2 0 -4
-4 -4 -10z"/>
<path d="M1115 2400 c3 -5 10 -10 16 -10 5 0 9 5 9 10 0 6 -7 10 -16 10 -8 0
-12 -4 -9 -10z"/>
<path d="M1257 2360 c-4 -14 -14 -20 -36 -21 -17 -1 -40 -3 -51 -4 -11 -1 -24
-3 -30 -4 -5 0 -10 -7 -10 -15 0 -19 56 -28 102 -15 30 8 43 7 55 -3 8 -7 30
-11 48 -10 22 2 34 -2 38 -12 4 -9 3 -15 -1 -15 -4 1 -14 0 -22 -1 -8 -2 12
-6 45 -10 33 -4 69 -11 80 -16 18 -7 18 -6 6 9 -7 9 -17 14 -22 12 -4 -3 -20
12 -34 34 -25 41 -50 54 -95 49 -18 -2 -28 3 -35 20 -12 27 -31 29 -38 2z"/>
<path d="M1446 2372 c-5 -9 4 -19 47 -52 18 -13 18 -12 0 20 -20 35 -37 47
-47 32z"/>
<path d="M1296 2225 c-10 -51 -24 -69 -42 -54 -10 8 -13 4 -12 -19 1 -27 4
-29 43 -30 52 0 111 -30 167 -82 45 -44 74 -48 72 -13 -1 12 4 21 10 20 6 -1
10 6 10 16 -2 14 1 15 13 6 7 -7 12 -18 9 -25 -3 -8 0 -11 8 -8 13 5 36 -35
36 -63 0 -9 3 -13 7 -9 9 9 4 95 -8 134 -13 39 -30 42 -25 5 2 -16 1 -20 -1
-10 -2 9 -9 15 -14 12 -5 -4 -9 1 -9 9 0 8 -5 18 -12 22 -8 5 -9 2 -5 -10 6
-14 3 -17 -9 -12 -8 3 -18 6 -20 6 -13 0 -1 29 13 32 11 2 -3 14 -39 33 -31
16 -55 32 -53 35 2 3 -4 6 -13 7 -9 1 -27 4 -39 8 -15 5 -23 3 -23 -4 0 -6 11
-13 25 -17 21 -5 24 -11 20 -34 -3 -17 1 -32 10 -40 23 -19 18 -32 -7 -18 -13
7 -26 11 -30 10 -5 -1 -8 1 -9 6 -3 29 -9 46 -20 52 -6 5 -9 15 -6 24 3 8 2
18 -3 21 -6 4 -10 1 -10 -4 0 -21 -19 -11 -22 12 -3 16 -6 11 -12 -18z m214
-169 c0 -2 -7 -7 -16 -10 -8 -3 -12 -2 -9 4 6 10 25 14 25 6z"/>
<path d="M1227 2212 c1 -8 3 -16 3 -18 0 -2 5 -4 10 -4 6 0 10 10 10 23 0 16
-3 18 -9 8 -5 -7 -11 -9 -13 -5 -3 5 -3 3 -1 -4z"/>
<path d="M1546 1993 c2 -3 -6 -13 -16 -22 -19 -16 -19 -17 -1 -56 11 -22 20
-37 20 -33 1 4 -4 19 -11 32 -9 22 -8 29 7 46 12 13 15 23 8 29 -5 5 -9 6 -7
4z"/>
<path d="M1586 1863 c-9 -25 -14 -49 -11 -51 5 -5 21 33 31 73 11 43 -3 27
-20 -22z"/>
<path d="M1532 1810 c0 -14 2 -19 5 -12 2 6 2 18 0 25 -3 6 -5 1 -5 -13z"/>
<path d="M1610 1755 c0 -14 -5 -25 -11 -25 -5 0 -8 -4 -5 -9 3 -5 -1 -12 -10
-15 -9 -4 -14 -9 -11 -13 4 -3 2 -12 -3 -19 -6 -6 -13 -23 -15 -35 -4 -22 -3
-22 19 6 18 22 21 33 14 43 -8 9 -7 11 6 6 9 -3 16 -5 17 -3 8 59 10 89 5 89
-3 0 -6 -11 -6 -25z"/>
<path d="M1541 1754 c0 -11 3 -14 6 -6 3 7 2 16 -1 19 -3 4 -6 -2 -5 -13z"/>
<path d="M790 1105 c0 -8 4 -15 10 -15 5 0 7 7 4 15 -4 8 -8 15 -10 15 -2 0
-4 -7 -4 -15z"/>
<path d="M1110 1055 c0 -7 30 -13 34 -7 3 4 -4 9 -15 9 -10 1 -19 0 -19 -2z"/>
<path d="M12 725 c0 -16 2 -22 5 -12 2 9 2 23 0 30 -3 6 -5 -1 -5 -18z"/>
<path d="M2385 550 c4 -6 11 -8 16 -5 14 9 11 15 -7 15 -8 0 -12 -5 -9 -10z"/>
<path d="M2325 540 c3 -5 8 -10 11 -10 2 0 4 5 4 10 0 6 -5 10 -11 10 -5 0 -7
-4 -4 -10z"/>
<path d="M2276 515 c-11 -12 -17 -25 -15 -29 2 -4 -4 -12 -13 -17 -10 -6 -18
-15 -18 -20 0 -6 14 -2 30 8 31 18 39 33 18 33 -7 0 0 8 15 19 19 12 24 20 15
23 -7 3 -22 -5 -32 -17z"/>
<path d="M1714 433 c4 -9 1 -20 -6 -25 -10 -6 -10 -7 2 -7 25 2 67 17 49 18
-9 1 -19 8 -23 16 -3 8 -10 15 -17 15 -6 0 -8 -7 -5 -17z"/>
<path d="M577 433 c-4 -3 -7 -11 -7 -17 0 -6 5 -5 12 2 6 6 9 14 7 17 -3 3 -9
2 -12 -2z"/>
<path d="M2020 430 c0 -5 7 -7 15 -4 8 4 15 8 15 10 0 2 -7 4 -15 4 -8 0 -15
-4 -15 -10z"/>
<path d="M2045 409 c4 -10 2 -20 -4 -24 -6 -3 -11 -1 -11 4 0 6 -7 11 -16 11
-9 0 -12 -5 -8 -11 5 -9 -1 -10 -22 -4 -79 20 -119 11 -74 -17 11 -7 20 -17
20 -21 0 -9 25 -37 33 -37 3 0 3 10 1 23 -5 22 -4 22 5 1 11 -24 33 -42 29
-24 -2 7 5 14 15 15 9 2 15 -1 11 -6 -6 -11 9 -12 20 -2 4 4 -3 15 -16 25
l-23 18 28 0 c16 0 26 -4 22 -10 -3 -5 -1 -10 5 -10 6 0 9 -4 6 -9 -6 -8 17
-23 39 -25 6 -1 10 -11 9 -22 0 -11 6 -21 13 -21 7 0 13 11 13 24 0 17 5 23
16 21 10 -2 19 2 21 9 2 6 -6 13 -19 15 -13 2 -22 9 -20 16 1 8 -2 11 -8 7 -5
-3 -10 -1 -10 5 0 7 -7 9 -16 6 -8 -3 -12 -2 -9 4 3 6 2 10 -4 10 -6 0 -20 10
-31 23 -14 14 -19 16 -15 6z m75 -79 c13 -8 12 -10 -2 -10 -10 0 -21 0 -25 -1
-4 0 -9 4 -11 10 -5 14 18 14 38 1z"/>
<path d="M591 386 c-13 -16 2 -32 19 -21 6 4 10 3 9 -2 -1 -4 3 -19 9 -33 7
-17 11 -19 11 -8 1 20 26 27 61 18 14 -4 34 -4 45 1 16 6 12 8 -17 8 -51 1
-68 10 -68 34 0 20 0 20 -14 1 -14 -18 -15 -18 -21 -1 -9 21 -19 22 -34 3z"/>
<path d="M2220 366 c0 -2 8 -10 18 -17 15 -13 16 -12 3 4 -13 16 -21 21 -21
13z"/>
<path d="M2007 301 c3 -10 15 -22 26 -25 19 -5 20 -8 7 -17 -10 -7 -11 -9 -2
-7 8 2 14 8 14 13 0 6 4 15 9 22 12 13 -5 28 -21 18 -6 -4 -17 -2 -25 5 -11 9
-12 7 -8 -9z m53 -5 c0 -3 -4 -8 -10 -11 -5 -3 -10 -1 -10 4 0 6 5 11 10 11 6
0 10 -2 10 -4z"/>
<path d="M2076 272 c-7 -12 5 -52 15 -52 5 0 9 14 9 30 0 28 -13 40 -24 22z"/>
<path d="M2210 270 c-13 -8 -13 -10 2 -10 9 0 18 -6 21 -12 2 -7 7 -10 11 -7
3 3 0 13 -7 22 -8 12 -16 14 -27 7z"/>
<path d="M2265 260 c3 -5 8 -10 11 -10 2 0 4 5 4 10 0 6 -5 10 -11 10 -5 0 -7
-4 -4 -10z"/>
<path d="M2157 244 c-11 -11 13 -44 31 -44 12 0 13 -3 5 -8 -7 -4 -9 -13 -4
-21 6 -9 10 -7 14 9 4 14 10 19 18 14 8 -4 10 -3 5 4 -4 7 -14 12 -22 12 -18
0 -46 25 -37 34 4 3 4 6 1 6 -2 0 -8 -3 -11 -6z"/>
<path d="M2298 222 c-8 -12 -17 -20 -19 -17 -3 2 -5 -5 -6 -15 -1 -11 2 -22 8
-25 5 -4 9 1 9 9 0 9 5 16 11 16 5 0 7 -4 4 -10 -3 -5 1 -10 9 -10 9 0 16 7
16 15 0 8 -8 15 -17 15 -14 0 -15 2 -4 9 7 5 11 15 9 22 -3 9 -9 6 -20 -9z"/>
<path d="M2112 218 c-7 -7 -12 -21 -11 -32 0 -12 3 -15 6 -8 2 6 9 10 14 6 5
-3 9 3 9 12 0 16 1 16 20 -1 11 -10 20 -14 20 -8 0 10 -32 43 -41 43 -3 0 -10
-5 -17 -12z"/>
<path d="M2081 184 c0 -11 3 -14 6 -6 3 7 2 16 -1 19 -3 4 -6 -2 -5 -13z"/>
<path d="M2412 121 c-11 -7 -11 -9 0 -14 9 -3 15 1 15 9 0 8 -1 14 -1 14 -1 0
-7 -4 -14 -9z"/>
<path d="M1451 104 c0 -11 3 -14 6 -6 3 7 2 16 -1 19 -3 4 -6 -2 -5 -13z"/>
<path d="M322 66 c13 -14 28 -12 28 5 0 5 -9 9 -20 9 -17 0 -19 -2 -8 -14z"/>
<path d="M475 50 c-3 -5 1 -10 10 -10 9 0 13 5 10 10 -3 6 -8 10 -10 10 -2 0
-7 -4 -10 -10z"/>
<path d="M860 50 c0 -5 5 -10 11 -10 5 0 7 5 4 10 -3 6 -8 10 -11 10 -2 0 -4
-4 -4 -10z"/>
<path d="M246 31 c-19 -7 -19 -8 0 -13 13 -3 21 0 21 8 0 8 -1 14 -1 13 -1 0
-10 -4 -20 -8z"/>
<path d="M285 20 c3 -5 8 -10 11 -10 2 0 4 5 4 10 0 6 -5 10 -11 10 -5 0 -7
-4 -4 -10z"/>
<path d="M452 18 c17 -10 48 -10 48 0 0 5 -14 9 -30 9 -20 0 -26 -3 -18 -9z"/>
<path d="M1138 23 c7 -3 16 -2 19 1 4 3 -2 6 -13 5 -11 0 -14 -3 -6 -6z"/>
<path d="M1560 20 c0 -5 7 -10 16 -10 8 0 12 5 9 10 -3 6 -10 10 -16 10 -5 0
-9 -4 -9 -10z"/>
</g>
</svg>
